# xmcd CD database file
#
# Track frame offsets:
#	150
#	4372
#	9447
#	11582
#	12992
#	16302
#	18830
#	21927
#	25170
#	35885
#	43862
#	50337
#	58942
#	66637
#	75867
#	82555
#	89895
#	97995
#	103267
#	118082
#	125937
#	137777
#	147537
#	163660
#	174005
#
# Disc length: 2504 seconds
#
# Revision: 0
# Processed by: cddbd v1.5.1PL0 Copyright (c) Steve Scherf et al.
# Submitted via: CDex 1.60beta1
#
DISCID=4e09c619
DTITLE=Fresno State Marching Band - 1993
DYEAR=1900
DGENRE=Jazz
TTITLE0=Red Wave Fanfare
TTITLE1=FSU Fight Song
TTITLE2=Big Red 1
TTITLE3=Trombone Fanfare
TTITLE4=Big Red 2
TTITLE5=Jim's Tune
TTITLE6=Hot Time
TTITLE7=Beer Song
TTITLE8=Stars And Stripes Forever
TTITLE9=Scream
TTITLE10=Tennessee Waltz
TTITLE11=San Miguel
TTITLE12=Drum Cadence
TTITLE13=Drum Solo
TTITLE14=Rocking The Paradise
TTITLE15=Friend Like Me
TTITLE16=Tell Me Why
TTITLE17=Fresno State Alma Mater
TTITLE18=Rocky
TTITLE19="0-B'
TTITLE20=Attitude Dance
TTITLE21=Don't Let The Sun Go Down On Me
TTITLE22=Mambo Caliente
TTITLE23=Separate Ways
TTITLE24=Everybody's Everything
EXTD=
EXTT0=
EXTT1=
EXTT2=
EXTT3=
EXTT4=
EXTT5=
EXTT6=
EXTT7=
EXTT8=
EXTT9=
EXTT10=
EXTT11=
EXTT12=
EXTT13=
EXTT14=
EXTT15=
EXTT16=
EXTT17=
EXTT18=
EXTT19=
EXTT20=
EXTT21=
EXTT22=
EXTT23=
EXTT24=
PLAYORDER=
